<?xml version="1.0" encoding="UTF-8"?>
<svg version="1.1" viewBox="0 0 1648 1648" width="412" height="412" xmlns="http://www.w3.org/2000/svg">
<path transform="translate(846,507)" d="m0 0h15l22 3 21 6 13 5 13 9 14 11 13 13 11 15 11 20 6 15 4 17 1 12-2 1-103 1-8 4-4 5-1 2v8l6 10 4 3 3 1 30-1h74l1 4v12l-1 23-1 1h-107l-6 5-3 6v7l4 7 6 6 4 1h103l1 1v35l-2 2-103 1-7 3-6 7 1 9 6 8 5 3 105 1 1 2v34l-2 16-3 16-6 16-8 16-8 13-11 12-7 8-11 10-9 7-14 8-21 8-17 4h-33l-15-3-17-5-16-8-14-10-10-8-20-20-9-14-9-17-7-21-2-13-1-13v-36l1-3 100-1 9-3 6-7 2-7-3-7-1-3-5-2-14-1h-57l-27-1-11-1-1-36 1-2 61 1h43l10-5 4-7-1-9-5-7-9-3h-22l-83-1v-39h107l8-4 4-6 1-8-5-8-5-4-2-1h-91l-15-1v-9l2-14 5-17 8-16 11-17 11-13 13-13 13-10 13-8 27-8 12-2z" fill="#FEFEFE"/>
<path transform="translate(661,726)" d="m0 0h8l8 7 3 5v116l2 20 5 22 7 21 7 13 24 36 11 12 12 11 16 10 16 9 16 8 15 6 13 3 24 2h12l21-2 25-6 23-10 18-10 12-8 13-12 13-13 11-15 10-19 6-11 9-21 4-13 3-22v-122l2-7 9-8 6-1 8 4 7 8 1 4 1 110-1 23-3 19-6 21-6 16-8 16-12 20-13 17-9 10-14 14-19 14-19 12-12 7-25 9-23 6-10 2-12 1 1 11v30l-3 8-6 7-8 1-8-4-4-5-3-8-1-10v-29l-26-5-15-4-21-8-20-11-21-13-11-9-10-9-8-7-8-8-11-14-12-18-8-16-11-26-4-18-2-24v-136l5-6z" fill="#FEFEFE"/>
<path transform="translate(557,519)" d="m0 0 6 1 9 8 1 2 1 98v489l-3 5-6 5h-10l-7-6-2-5-1-7v-577l4-7 6-5z" fill="#FEFEFE"/>
<path transform="translate(1145,521)" d="m0 0h8l6 4 4 6v587l-6 7-4 2-9-1-6-5-2-4-1-85v-501l3-5z" fill="#FEFEFE"/>
<path transform="translate(612,614)" d="m0 0 6 2 7 8v395l-4 6-5 4h-8l-6-4-5-6-1-5v-336l1-54 9-8z" fill="#FEFEFE"/>
<path transform="translate(453,611)" d="m0 0h10l8 6 3 5 1 111v238l-1 33-1 15-4 6-5 4-3 1h-7l-5-3-3-5v-52l1-97v-153l-2-77v-23l4-6z" fill="#FEFEFE"/>
<path transform="translate(1094,615)" d="m0 0h8l8 6 2 5 1 46 1 155v46l-1 86-1 60-4 7-5 4-5 1-8-3-6-6v-39l1-68v-139l-1-107v-45l5-6z" fill="#FEFEFE"/>
<path transform="translate(1245,610)" d="m0 0 7 1 6 5 2 3v401l-2 5-4 5-2 1h-9l-6-4-4-6v-112l1-290 5-5z" fill="#FEFEFE"/>
<path transform="translate(1196,624)" d="m0 0 7 1 5 4 3 6v375l-3 5-6 5-9-1-5-5-3-9v-370l4-6 5-4z" fill="#FEFEFE"/>
<path transform="translate(507,626)" d="m0 0h8l7 8 1 2 1 113v109l-1 146-2 10-7 6h-8l-6-5-2-6-1-51v-324l4-5z" fill="#FEFEFE"/>
<path transform="translate(410,685)" d="m0 0 9 1 6 4 4 7 1 90v38l-1 90-1 28-5 8-4 3h-7l-8-6-3-6-1-248 6-7z" fill="#FEFEFE"/>
<path transform="translate(1294,685)" d="m0 0 7 1 8 7 1 3v247l-7 8-2 1h-9l-8-7-2-4v-140l1-105 4-6 5-4z" fill="#FEFEFE"/>
<path transform="translate(363,685)" d="m0 0h7l6 4 3 5v254l-6 7-7 1-8-4-4-5-1-3-1-249 3-5z" fill="#FEFEFE"/>
<path transform="translate(1285,1065)" d="m0 0h13l10 4 9 8 6 10 3 7v14l-4 8-6 7-10 6-7 2h-16l-8-4-5-5-4-5-4-8-2-8 1-12 7-14 8-7z" fill="#FEFEFE"/>
<path transform="translate(317,763)" d="m0 0 6 1 7 5 3 7v92l-7 6-6 1-7-3-4-4-1-3-1-33-18-9-5-5 1-5 5-5 6-2 11-1v-33l3-5z" fill="#FEFEFE"/>
<path transform="translate(1344,761)" d="m0 0 7 1 5 5 3 5v43l-1 22v27l-4 8-3 3h-8l-6-4-4-5-1-3v-79l1-14 5-6z" fill="#FEFEFE"/>
</svg>
